# xmcd
#
# Track frame offsets: 
#        150
#        31235
#        56100
#        83180
#        118407
#
# Disc length: 2071 seconds
#
# Revision: 2
# Processed by: cddbd v1.5.1PL2 Copyright (c) Steve Scherf et al.
# Submitted via: ExactAudioCopy v0.95b4
#
DISCID=40081505
DTITLE=Hank Mobley - Hank Mobley
DYEAR=1957
DGENRE=Jazz
TTITLE0=Mighty Moe and Joe
TTITLE1=Falling In Love With Love
TTITLE2=Bag's Groove
TTITLE3=Double Exposure
TTITLE4=News
EXTD=YEAR: 1957
EXTT0=
EXTT1=
EXTT2=
EXTT3=
EXTT4=
PLAYORDER=
